# xmcd
#
# Track frame offsets:
#	150
#	30943
#	63783
#	86728
#	111483
#	130825
#	157838
#	187850
#
# Disc length: 2721 seconds
#
# Revision: 1
# Processed by: cddbd v1.4PL0 Copyright (c) Steve Scherf et al.
# Submitted via: audiograbber 1.80.04
#
DISCID=580a9f08
DTITLE=Milt Jack and Ichiro Masuda Quartet - M and M
DYEAR=1900
DGENRE=
TTITLE0=I Owesya
TTITLE1=What You Say Dr "J"
TTITLE2=Lillie
TTITLE3=Used To Be Jackson
TTITLE4=Compassion
TTITLE5=Ne Afterglow
TTITLE6=Bags Groove
TTITLE7=The Very Thought Of You
EXTD=
EXTT0=
EXTT1=
EXTT2=
EXTT3=
EXTT4=
EXTT5=
EXTT6=
EXTT7=
PLAYORDER=
